<mxfile host="app.diagrams.net" modified="2020-05-19T20:57:12.890Z" agent="5.0 (Windows NT 10.0; Win64; x64) AppleWebKit/537.36 (KHTML, like Gecko) Chrome/81.0.4044.138 Safari/537.36" etag="ax2ucUKDpCsvKI6H7wQv" version="13.1.3" type="github">
  <diagram name="Page-1" id="5f0bae14-7c28-e335-631c-24af17079c00">
    <mxGraphModel dx="1038" dy="580" grid="1" gridSize="10" guides="1" tooltips="1" connect="1" arrows="1" fold="1" page="1" pageScale="1" pageWidth="1100" pageHeight="850" background="#ffffff" math="0" shadow="0">
      <root>
        <mxCell id="0" />
        <mxCell id="1" parent="0" />
        <mxCell id="39150e848f15840c-5" value="EdgeServer" style="shape=component;align=left;spacingLeft=36;rounded=0;shadow=0;comic=0;labelBackgroundColor=none;strokeWidth=1;fontFamily=Verdana;fontSize=12;html=1;" parent="1" vertex="1">
          <mxGeometry x="430" y="320" width="140" height="60" as="geometry" />
        </mxCell>
        <mxCell id="39150e848f15840c-6" value="" style="ellipse;whiteSpace=wrap;html=1;rounded=0;shadow=0;comic=0;labelBackgroundColor=none;strokeWidth=1;fontFamily=Verdana;fontSize=12;align=center;" parent="1" vertex="1">
          <mxGeometry x="497.5" y="410" width="22.5" height="20" as="geometry" />
        </mxCell>
        <mxCell id="39150e848f15840c-7" value="PlatformServer" style="shape=component;align=left;spacingLeft=36;rounded=0;shadow=0;comic=0;labelBackgroundColor=none;strokeWidth=1;fontFamily=Verdana;fontSize=12;html=1;" parent="1" vertex="1">
          <mxGeometry x="430" y="160" width="140" height="60" as="geometry" />
        </mxCell>
        <mxCell id="39150e848f15840c-9" value="" style="ellipse;whiteSpace=wrap;html=1;rounded=0;shadow=0;comic=0;labelBackgroundColor=none;strokeWidth=1;fontFamily=Verdana;fontSize=12;align=center;" parent="1" vertex="1">
          <mxGeometry x="500" y="255" width="20" height="20" as="geometry" />
        </mxCell>
        <mxCell id="39150e848f15840c-10" value="UnitTest" style="shape=component;align=left;spacingLeft=36;rounded=0;shadow=0;comic=0;labelBackgroundColor=none;strokeWidth=1;fontFamily=Verdana;fontSize=12;html=1;" parent="1" vertex="1">
          <mxGeometry x="430" y="460" width="140" height="60" as="geometry" />
        </mxCell>
        <mxCell id="39150e848f15840c-13" style="edgeStyle=elbowEdgeStyle;rounded=0;html=1;labelBackgroundColor=none;startArrow=none;startFill=0;startSize=8;endArrow=none;endFill=0;endSize=16;fontFamily=Verdana;fontSize=12;" parent="1" source="39150e848f15840c-9" target="39150e848f15840c-7" edge="1">
          <mxGeometry relative="1" as="geometry" />
        </mxCell>
        <mxCell id="39150e848f15840c-14" style="edgeStyle=elbowEdgeStyle;rounded=0;html=1;labelBackgroundColor=none;startArrow=none;startFill=0;startSize=8;endArrow=none;endFill=0;endSize=16;fontFamily=Verdana;fontSize=12;" parent="1" source="39150e848f15840c-6" target="39150e848f15840c-5" edge="1">
          <mxGeometry relative="1" as="geometry" />
        </mxCell>
        <mxCell id="uD4qL7z7MlFu9nblH_fh-20" style="edgeStyle=orthogonalEdgeStyle;rounded=0;orthogonalLoop=1;jettySize=auto;html=1;exitX=1;exitY=0.5;exitDx=0;exitDy=0;exitPerimeter=0;endArrow=none;endFill=0;" edge="1" parent="1" source="uD4qL7z7MlFu9nblH_fh-19" target="39150e848f15840c-10">
          <mxGeometry relative="1" as="geometry">
            <Array as="points">
              <mxPoint x="508" y="453" />
              <mxPoint x="508" y="453" />
            </Array>
          </mxGeometry>
        </mxCell>
        <mxCell id="uD4qL7z7MlFu9nblH_fh-19" value="" style="shape=requiredInterface;html=1;verticalLabelPosition=bottom;rotation=90;" vertex="1" parent="1">
          <mxGeometry x="500" y="410" width="15" height="30" as="geometry" />
        </mxCell>
        <mxCell id="uD4qL7z7MlFu9nblH_fh-22" style="edgeStyle=orthogonalEdgeStyle;rounded=0;orthogonalLoop=1;jettySize=auto;html=1;exitX=1;exitY=0.5;exitDx=0;exitDy=0;exitPerimeter=0;endArrow=none;endFill=0;" edge="1" parent="1" source="uD4qL7z7MlFu9nblH_fh-21" target="39150e848f15840c-5">
          <mxGeometry relative="1" as="geometry">
            <Array as="points">
              <mxPoint x="510" y="310" />
              <mxPoint x="510" y="310" />
            </Array>
          </mxGeometry>
        </mxCell>
        <mxCell id="uD4qL7z7MlFu9nblH_fh-21" value="" style="shape=requiredInterface;html=1;verticalLabelPosition=bottom;rotation=90;" vertex="1" parent="1">
          <mxGeometry x="502.5" y="255" width="15" height="30" as="geometry" />
        </mxCell>
        <mxCell id="uD4qL7z7MlFu9nblH_fh-23" value="PlatformService" style="text;html=1;align=center;verticalAlign=middle;resizable=0;points=[];autosize=1;" vertex="1" parent="1">
          <mxGeometry x="530" y="255" width="100" height="20" as="geometry" />
        </mxCell>
        <mxCell id="uD4qL7z7MlFu9nblH_fh-24" value="EdgeService" style="text;html=1;align=center;verticalAlign=middle;resizable=0;points=[];autosize=1;" vertex="1" parent="1">
          <mxGeometry x="530" y="410" width="80" height="20" as="geometry" />
        </mxCell>
        <mxCell id="uD4qL7z7MlFu9nblH_fh-25" value="Seq &#xa;LoggingPlatform" style="shape=module;align=left;spacingLeft=20;align=center;verticalAlign=top;" vertex="1" parent="1">
          <mxGeometry x="150" y="320" width="130" height="50" as="geometry" />
        </mxCell>
        <mxCell id="uD4qL7z7MlFu9nblH_fh-26" value="" style="endArrow=classic;html=1;" edge="1" parent="1" source="39150e848f15840c-7" target="uD4qL7z7MlFu9nblH_fh-25">
          <mxGeometry width="50" height="50" relative="1" as="geometry">
            <mxPoint x="330" y="240" as="sourcePoint" />
            <mxPoint x="380" y="190" as="targetPoint" />
          </mxGeometry>
        </mxCell>
        <mxCell id="uD4qL7z7MlFu9nblH_fh-27" value="" style="endArrow=classic;html=1;" edge="1" parent="1" source="39150e848f15840c-5" target="uD4qL7z7MlFu9nblH_fh-25">
          <mxGeometry width="50" height="50" relative="1" as="geometry">
            <mxPoint x="457.741935483871" y="230" as="sourcePoint" />
            <mxPoint x="283.54838709677415" y="330" as="targetPoint" />
          </mxGeometry>
        </mxCell>
        <mxCell id="uD4qL7z7MlFu9nblH_fh-28" value="" style="endArrow=classic;html=1;" edge="1" parent="1" source="39150e848f15840c-10" target="uD4qL7z7MlFu9nblH_fh-25">
          <mxGeometry width="50" height="50" relative="1" as="geometry">
            <mxPoint x="467.741935483871" y="240" as="sourcePoint" />
            <mxPoint x="293.54838709677415" y="340" as="targetPoint" />
          </mxGeometry>
        </mxCell>
      </root>
    </mxGraphModel>
  </diagram>
</mxfile>
